<?xml version="1.0" encoding="utf-8"?>
<!-- Generator: Adobe Illustrator 21.0.0, SVG Export Plug-In . SVG Version: 6.00 Build 0)  -->
<svg version="1.1" id="Layer_1" xmlns="http://www.w3.org/2000/svg" xmlns:xlink="http://www.w3.org/1999/xlink" x="0px" y="0px"
	 viewBox="0 0 1000 1000" style="enable-background:new 0 0 1000 1000;" xml:space="preserve">
<style type="text/css">
	.st0{display:none;}
	.st1{display:inline;fill:#4896F0;}
	.st2{fill:#4d7cfe;}
	.st3{fill:#C99B5D;}
	.st4{fill:#FFFFFF;}
	.st5{fill:#93581D;}
	.st6{fill:#703A09;}
	.st7{fill:#E29149;}
	.st8{fill:#9E631D;}
	.st9{fill:#E5B67F;}
	.st10{fill:#E2B176;}
	.st11{opacity:0.24;}
	.st12{fill:#396dfe;}
	.st13{fill:#683804;}
	.st14{fill:#F9D6AF;}
	.st15{fill:#002159;}
</style>
<g id="Layer_2" class="st0">
	<rect class="st1" width="1000" height="1000"/>
</g>
<g id="Layer_1_1_">
	<g>
		<g>
			<g>
				<polyline class="st2" points="818.1,615.3 773.6,991.7 97.7,969.5 203.4,646.6 818.1,605.3 				"/>
			</g>
		</g>
		<g>
			<g>
				<path class="st3" d="M797.2,615.3l-216.8,13.9c0,0-37,2.6-41,2.8s-38.1,82.4-96.7,88.6c-58.6,6.2-66.6-8.9-66.6-8.9
					s2.2,10.4-14,7.2s-40.3,14.2-53.5-24.8c-13.2-39.1-20-109.6-19.9-117.6s0.2-10.4,0.2-10.4s-31.6-53.1-16.7-77
					c14.9-24.1,20.8-28.6,20.8-28.6s19-55,26.8-73.3c7.8-18.3,89.4-128,92.3-131.2c3-3.2,6.1-9.2,6.1-9.2l-6.1-19.5
					c0,0-13.2-47.6,12.8-69.6s32.4-21.9,32.4-21.9l11.9,3.9l-11.9,36.6v2.3c0,0,58.9-32.6,59.6-29.4c0.8,3.2,5.6,31.8,5.6,31.8
					l5.6,10.1c0,0,10.8-40.3,18.2-33.6c7.3,6.7,25.4,19.7,25.4,19.7s-1.8-52.1,22.8-63.8c24.5-11.7,35.6-8,35.6-8
					s97.6-12.4,144.7,30.2s55.5,66.8,55.5,66.8s48.9-42,58.7-30.7s19.1,44,5.8,74.8S867,294.1,867,294.1s5.1,104.4-18.9,139.6
					s-37,73.4-40.9,90.1S802.5,612.7,797.2,615.3z"/>
			</g>
		</g>
		<g>
			<g>
				<path class="st4" d="M595.7,286.4l-41.6,3.3c0,0-14.3-8.3,0-31.1s27-41.6,40-37.5C607.1,225.1,605.1,285.6,595.7,286.4z"/>
			</g>
		</g>
		<g>
			<g>
				<path class="st5" d="M565.3,176.9c0,4.3-20.9-21.9-20.9-21.9L528,191.5c0,0-7.1-19.6-8.5-27.3c-1.3-7.8-2.6-14.5-2.6-14.5
					s3.7-6.6,0-3s-55,29.8-53.6,29.1c1.3-0.8,10.1-23.3,13.6-26.1c3.6-2.8,1.6-9.3,1.6-9.3l-35-16.4l36.1-8.5
					c0,0-24.9-25.9-28.7-27.6c-3.7-1.6-4.3-9-4.3-9l63.1,8l-14.9-39.3c0,0,59.9,16.4,59.4,13.2s-20.1-52-20.1-52s63.9-2.1,70.7,9.5
					c6.8,11.7,12.4,33.9,12.4,33.9s28.4-14.3,38-15.4c9.5-1.1,41.9,2.1,41.9,2.1l-25.9,17l48.2,10.6l15.9,3.2l-18.6,18l38.7,7.7
					L741,112.5c0,0-57.2-22.9-98.6-12.3s-57.5,17.2-57.5,17.2S565.3,171.1,565.3,176.9z"/>
			</g>
		</g>
		<g>
			<g>
				<path class="st6" d="M470,172.2c0,0,10-33.3,53.2-52.6c5.6,3,9,47.7,5.1,63.8c-2.7-6.2-7.3-32.9-8.1-33.8
					C519.4,148.8,470,172.2,470,172.2z"/>
			</g>
		</g>
		<g>
			<g>
				<path class="st6" d="M563.7,166.3c-0.8-1.1-7.1-44,12.1-60.5c19.4-16.4,52-22.3,52-22.3l-12.9,9.6c0,0,58.3-9,78.4-3.5
					c20.1,5.6,60.5,10.8,60.5,10.8l-13,12.3c0,0-71.9-11.7-95.2-10.8C622.3,102.6,587,122,587,122S564.6,167.6,563.7,166.3z"/>
			</g>
		</g>
		<g>
			<g>
				<path class="st7" d="M584.7,76.9c0,0,1.3-38.7-11.2-48.8s-23.4-11.6-23.4-11.6s30.5,38.4,20.5,77.9
					C580.8,81.7,584.7,76.9,584.7,76.9z"/>
			</g>
		</g>
		<g>
			<g>
				<path class="st7" d="M545.4,89.1c-0.2-1-21.4-24.5-30-28.7c12.7,16.5,11.4,35.7,11.7,40c0.4,4.4,10.4,13.5,10.5,14.1
					C537.8,115.2,545.4,89.1,545.4,89.1z"/>
			</g>
		</g>
		<g>
			<g>
				<path class="st7" d="M616.7,73.4l19-5.6c0,0,30-20.7,38.9-24.6C665.1,45.7,630.6,54.1,616.7,73.4z"/>
			</g>
		</g>
		<g>
			<g>
				<path class="st7" d="M494.9,113c-1.2-0.4-30.8-25.5-30.8-25.5s22.4,3.2,34.3,12.6C510.3,109.4,513,113,513,113
					S504.5,116.4,494.9,113z"/>
			</g>
		</g>
		<g>
			<g>
				<path class="st8" d="M843.6,283.5c0,0-15.5,14.8-30.6-10.9c-11.9-20.9-1.1-36.4,10.4-44.2s48.9-31.2,58-27.2s12.4,28,0,43.1
					C869.1,259.2,855.5,281.1,843.6,283.5z"/>
			</g>
		</g>
		<g>
			<g>
				<path class="st8" d="M542.6,294.6c0,0,7.5,22.9,56.9,26.5c49.3,3.7,65.6-20.8,68.6-37.8c3-17.1-7.8-12.1-7.8-12.1
					s-33.8,15.8-55.7,15.2C582.6,285.8,537.3,283.4,542.6,294.6z"/>
			</g>
		</g>
		<g>
			<g>
				<path class="st8" d="M783.3,625.4c0,0-26.4-42.7-9.6-129.2c16.7-86.6,24.8-120.8,24.8-120.8S762,482.3,718.9,505.8
					c-43.2,23.5-105.6,69.1-105.6,69.1s-11.5,56.8-9.8,57c1.6,0.2,183.8-6.9,183.8-6.9"/>
			</g>
		</g>
		<g>
			<g>
				<path class="st8" d="M587.4,479.3c4.7,2.5,33.5,34.5,43,49.1c23.1-10,154.5-112,172.2-170.9c-25.9,79-55.9,116.8-82.3,147.2
					S614.2,564.9,613,566.3s-1.2,1.4-1.2,1.4l-8.9,47.6l-31.7-3.7v-6.2c0,0-7.4,13.1-9.2,17.4c-1.8,4.3-17.7,3.4-20,1.2
					s5.6-79.1,5.6-79.1l19.7-32.8v-19.5L587.4,479.3z"/>
			</g>
		</g>
		<g>
			<g>
				<path class="st8" d="M357.5,718.6c0,0-16.4-38.6-17-103.3c-15.3-13.8-23.3-27.1-23.3-27.1l30.2,13.8c0,0,72-58,78.7-65.5
					c6.7-7.7,37.4-42.1,37.4-42.1s-2.1,51-30.2,72.2c-28.1,21.2-83.2,48.8-83.2,48.8h-5.3c0,0,6.3,69.5,37.1,96.5
					C377.6,710.1,364.8,727.4,357.5,718.6z"/>
			</g>
		</g>
		<g>
			<g>
				<path class="st8" d="M457.1,192.8c-2.2,4.3,46.2-18.7,46.2-18.7l14.1,13.2l11.7,13.3l18.7-17.5l20.9,4.2l25.5-51.4
					c0,0,94.7-44.8,168.9-8.6c-53.3-34-114.9-25.6-123.9-24.9c-9.2,0.7-51.6,17.2-51.6,17.2l-11.9,12.7l-8.1,39.8
					c0,0-15.1-7.3-19.7-11c-4.5-3.6-15.1,32.7-21.3,26.4s-11.2-25.9-11.2-27.5c0.1-1.6-5.3-13.2-5.3-13.2S459.7,187.7,457.1,192.8z"
					/>
			</g>
		</g>
		<g>
			<g>
				<path class="st9" d="M329,503.7c0,0-19.5-59.2,27-146s104-161.1,101-127.8c-3.1,33.4-48.2,99.7-77.8,172.3
					C349.7,474.8,337.8,566.8,329,503.7z"/>
			</g>
		</g>
		<g>
			<g>
				<path class="st9" d="M352.7,625.7c0,0,18.3,70.8,38.4,78.7s67.3,14.5,101-27c0,0,4-5.8-18.9,2.1c-23,8-52.3,12.9-72.7-15.9
					C379.8,634.8,346.9,615.4,352.7,625.7z"/>
			</g>
		</g>
		<g>
			<g>
				<path class="st9" d="M301.7,590.9c0,0-3.9,75.9,23.1,105.3c27,29.4,14.7,2.4,12.7-3.6s-8.8-39.8-10.4-56.4s-2-24.1-8.3-31
					C312.4,598.5,301.8,587.3,301.7,590.9z"/>
			</g>
		</g>
		<g>
			<g>
				<path class="st10" d="M510.6,470c0,0,103.6-13.7,117.5,19c13.9,32.7,57.2-12.7,97-58.1c39.8-45.3,66.3-72.4,30-60.5
					s-65.2,73.2-90.1,68.7c-28.3-5.1-36.5-18.6-70-13.2C561.5,431.3,491.7,471.9,510.6,470z"/>
			</g>
		</g>
		<g>
			<g>
				<path class="st9" d="M610,140.8c0,0,107.9-52.8,187.2,50.6c-7.7,1.9-26.3,18.5-24.9,40c1.3,21.4-13.5,16.7-17.2,0
					s-53.4-70.8-97.1-80.5C621.7,143,596.2,146.1,610,140.8z"/>
			</g>
		</g>
		<g class="st11">
			<g>
				<path class="st12" d="M311,711.8c0,0,29.9,37.4,75,19.6c55.7,14.3,119.3,6.9,146.4-30.7c27-37.6,32.4-71.4,32.4-71.4
					s-18.6,6.5-23,5.7s-4.4-0.8-4.4-0.8s-16.1,61.7-45,69.7s-76.1,19.6-80.4,18.3s-37-10.4-37-10.4s-35,14-63.9-2.1"/>
			</g>
		</g>
		<g>
			<g>
				<path class="st13" d="M725.9,622.8c0,0-15-90.6,19.6-149c-57.6,52.6-132.3,101.1-132.3,101.1l-10,47.9
					C603.2,622.8,721.1,624.6,725.9,622.8z"/>
			</g>
		</g>
		<g>
			<g>
				<path class="st13" d="M823.4,284.6c0,0-15.8-31,11.2-45.6c27-14.7,51.2-19.4,53.5-7.5c0.2-15.1,0.3-32.3-8.4-30.5
					c-8.8,1.6-60.8,28.2-60.8,28.2S788.8,267.4,823.4,284.6z"/>
			</g>
		</g>
		<g>
			<g>
				<path class="st9" d="M306.4,550c0,0,16.6,27.6,32.6,31.8c16,4.3,52.8-26.6,67.6-47.4c14.7-20.8,17.9-46.9,8.3-38.2
					c-9.5,8.8-23.4,52.1-59.6,57.2c-21.4,2-30.6,2-38.2-2.7C309.6,545.9,300.9,541.8,306.4,550z"/>
			</g>
		</g>
		<g>
			<g>
				<path class="st14" d="M545.1,462.6c-3.9,1.5,63.3-20.1,94,23.8C633.1,472.7,608.7,437.7,545.1,462.6z"/>
			</g>
		</g>
		<g>
			<g>
				<path class="st14" d="M403.5,296c0,0-52.7,74.3-58.9,138C346.5,391.3,345.2,355,403.5,296z"/>
			</g>
		</g>
		<g>
			<g>
				<path class="st14" d="M371.7,666.6c0,0,9.2,29.3,25.5,36.2s39.3,0,39.3,0S395.9,706.1,371.7,666.6z"/>
			</g>
		</g>
		<g>
			<g>
				<path class="st14" d="M305.9,611.9c0,0-2.6,59.1,23.1,81.9C321.6,677.7,311.9,671.1,305.9,611.9z"/>
			</g>
		</g>
		<g>
			<g>
				<path class="st8" d="M802.7,610c0,0-9.4-141.5,24.5-207.8c2.6,14.9,5.1,21.8,5.1,21.8s12.4-44,10.7-93.9
					c-13.2-1.1-60.6-19.5-62.9-65.7c14.7,25.4,37.8,42.3,54.4,40.8c16.5-1.5,29.8-4.3,29.8-4.3s7.8,80.2,0,97.1
					c-7.8,16.8-43.4,120.9-46.2,119.8c-2.6-1.1-15.4,15.4-13.8,17c1.6,1.6,1.3,75.3,1.3,75.3l-3,2.1"/>
			</g>
		</g>
		<g>
			<g>
				<path class="st14" d="M666.3,140.8c-2.6-0.3,64.4,8.9,88.8,54c2.3,7.1,5-3,9.8-7.4C769.8,182.9,753.3,150,666.3,140.8z"/>
			</g>
		</g>
		<g>
			<g>
				<path class="st6" d="M303.3,498.7c0,0-0.5-1.2-1.3-3.7c-0.4-1.2-0.9-2.7-1.2-4.6c-0.4-1.9-1-3.9-1.3-6.3s-0.8-5-1.2-8
					c-0.3-3-0.5-6-0.8-9.4s-0.2-7-0.2-10.8s0-7.9,0.4-11.9c0.4-4.2,0.8-8.5,1.2-13c0.7-4.5,1.6-9,2.4-13.8c0.4-2.4,0.9-4.8,1.4-7.2
					c0.7-2.4,1.3-4.8,2-7.2c1.3-4.8,2.7-9.8,4.3-14.9c1.8-4.9,3.6-9.8,5.6-14.9c1-2.5,2-5,2.8-7.5c1.1-2.5,2.3-4.9,3.5-7.4
					c2.4-4.9,4.7-10,7.2-14.9l1.9-3.7l2.1-3.6l4.3-7.1c2.8-4.7,5.8-9.5,8.6-14.2c3-4.7,6.3-9,9.5-13.5c3.2-4.4,6.3-8.8,9.6-13
					c1.5-2.2,3.3-4.2,5-6.1c1.8-2,3.4-3.9,5.1-5.9c3.4-3.8,6.8-7.7,10.1-11.4c3.4-3.6,6.5-7.4,10-10.5c6.8-6.6,13.3-12.6,19.5-18.2
					c3.1-2.7,5.9-5.5,8.9-7.8s5.8-4.5,8.4-6.6c5.3-4,10-7.4,13.9-10.3c3.8-2.8,7-4.9,9.1-6.5c2.1-1.4,3.3-2.2,3.3-2.2
					s-0.9,1.1-2.4,3.2c-1.6,2-3.8,5-6.9,8.8c-3,3.7-6.6,8.2-10.8,13.2c-2.1,2.5-4.4,5.1-6.8,8c-2.4,2.7-4.7,5.9-7.1,9.1
					c-4.9,6.3-10.4,13.1-16.2,20.2c-3,3.5-5.6,7.4-8.4,11.3s-5.8,7.8-8.8,11.8c-1.5,2-3,4-4.5,6s-3.1,4-4.4,6.2
					c-2.7,4.3-5.7,8.5-8.5,12.9s-5.9,8.6-8.8,13c-2.6,4.5-5.4,9.1-8,13.6l-4.2,6.8l-2.1,3.4l-1.8,3.5c-2.4,4.7-4.8,9.2-7.2,13.8
					c-1.2,2.3-2.4,4.6-3.6,6.9c-1.1,2.3-2.1,4.6-3.2,6.9c-2.1,4.6-4.2,9.2-6.2,13.6c-1.8,4.6-3.5,9.1-5.3,13.5
					c-0.9,2.2-1.8,4.4-2.6,6.6c-0.7,2.2-1.4,4.4-2.1,6.6c-1.4,4.3-2.7,8.5-4,12.6c-1.1,4.2-2.1,8.1-3.1,11.9
					c-1.2,3.8-1.6,7.5-2.5,11c-0.8,3.5-1.5,6.9-1.9,10.2c-0.4,3.2-1,6.2-1.3,9s-0.5,5.4-0.8,7.8c-0.3,4.7-0.7,8.4-0.5,10.9
					C303.3,497.3,303.3,498.7,303.3,498.7z"/>
			</g>
		</g>
		<g>
			<g>
				<path class="st6" d="M403,249.9c-0.2-0.9-26.6-83,43.1-122.2l9.4,16.6c-56.1,31.6-35.2,96.8-34.3,99.5L403,249.9z"/>
			</g>
		</g>
		<g>
			<g>
				<path class="st6" d="M463.5,148.2c0,0-45.1-25.9-59.9-28.7l53.6-11.2c0,0-35-35-37.6-35.6c17-3.7,57.2-11.7,81.2,0
					c-21.8-26.5-37.1-35-37.1-35s54.6-13.8,79.5,7.4C523,18.8,509.7,0.2,509.7,0.2S601-3,611,15.6c10.1,18.6,11.2,29.6,11.2,29.6
					s39.8-32.4,87-9.5c14.9,8.5,14.9,8.5,14.9,8.5s-30.7-1.1-44,10.6C725.2,50,758,71.2,758,71.2s-25.5,7.4-31.8,12.1
					c53.1,6.9,58.9,10.1,58.9,10.1S752.3,104,744.3,123c-7.4-6.9-20.7-12.1-20.7-12.1l24.2-11.4c0,0-32.8-8.2-45.3-10.1
					C712.8,82.5,727,71,727,71s-57.2-10.1-80.8-2.1c10.6-11.4,38.4-28.1,39.3-28.3c0.8-0.2-42.7-0.8-72.9,26.7
					c-3.6-17.5-8.3-40.9-22.6-45.7s-46.5-7.9-46.5-7.9s24.6,27.5,24.3,64.8c-0.4,0.4-13.6-10.7-28.2-14.7c-14.7-3.9-29.4-8-29.4-8
					s10,18.3,12.7,44.1c-6-5.6-37.7-17.1-65.2-15.5c19,14.3,33.8,31.4,33.8,31.4l-40.6,8l23.8,8.8c0,0,6-12.4,26.7-13.6
					c0,0-23.4,24.3-29.4,47.4c22.3-21.9,52.1-32.6,52.1-32.6l4.4,49.7l11.9-35.8l7.5,13.6l-18.7,39.8c0,0-18.3-9.5-17.9-43.3
					c-3.2,3.9-54,35.4-54,35.4S454.3,173.6,463.5,148.2z"/>
			</g>
		</g>
		<g>
			<g>
				<path class="st6" d="M540.6,124.4c0,0-11.4,48,28.1,63.1c2.6-4.5,13.8-70.6,27-81.6c-11.8,1.6-27.3,30.6-32.1,60.5
					C559.3,159,551,165.9,540.6,124.4z"/>
			</g>
		</g>
		<g>
			<g>
				<g>
					<path class="st6" d="M675.1,95.5c-0.5,0-1.1,0-1.8,0c-39.7,0-73.2,11-87.3,16.4c-0.2,3.5-1.6,6.9-4.3,9.2l2.5,5.4
						c0.4-0.2,41.2-18.5,90.7-18.3c65.9,0.5,114.9,32.6,145.8,95.5l11.4-5.6C790.9,114,724,95.9,675.1,95.5z"/>
				</g>
			</g>
		</g>
		<g>
			<g>
				<path class="st6" d="M344.8,612.7l-4.3-2.2c-78.2-40.7-81.7-107.6-76.5-130c3.9-16.7,27.8-31.2,32.6-33.9l9.5,16.5
					c-8.6,4.9-22,15.3-23.5,21.8c-0.1,0.7-12.8,64.6,62.5,106.3c41.7-21.2,73.1-54,78.8-82.6l18.7,3.7
					c-7.1,35.7-43.9,74.2-93.5,98.2L344.8,612.7z M306.2,463.1l-4.8-8.3L306.2,463.1L306.2,463.1L306.2,463.1z"/>
			</g>
		</g>
		<g>
			<g>
				<path class="st6" d="M412.1,551.2c0,0,14.3-47.7,12-68.4c-2.4-20.7,3.6-38.2,28.2-35.4c24.6,2.7,33.4,64.9-7.5,106.2
					c8.3-16.3,9.5-30.2,10.4-40.6c0.8,10-14.3,19.9-21.9,19.5C425.7,532.1,410.5,556.9,412.1,551.2z"/>
			</g>
		</g>
		<g>
			<g>
				<path class="st6" d="M373.9,717.6c0,0-0.2-0.3-0.8-0.9c-0.5-0.5-1.4-1.9-2.5-3.2c-1.2-1.4-2.1-3.1-3.3-4.9
					c-1.1-1.9-2.4-3.9-3.5-6.3c-1.1-2.3-2.3-4.8-3.6-7.5c-1-2.7-2.1-5.6-3.2-8.6s-2.2-6-3-9.2c-0.9-3.2-1.6-6.3-2.5-9.6
					c-0.4-1.6-0.9-3.2-1.2-4.8c-0.3-1.6-0.5-3.3-0.8-4.8c-0.5-3.2-1.1-6.3-1.5-9.4c-0.4-3.1-1.2-5.9-1.3-8.8
					c-0.2-2.8-0.4-5.5-0.7-7.9c-0.9-9.7-1.4-16.3-1.4-16.3s1.5,6.3,3.8,15.9c0.5,2.4,1.2,4.9,1.9,7.7c0.5,2.7,1.8,5.5,2.6,8.3
					c1,2.8,2,5.8,3,8.9c0.5,1.5,1,3.1,1.5,4.5c0.5,1.5,1.2,3,1.9,4.5c1.2,3,2.5,5.9,3.7,8.8c1.1,3,2.6,5.6,4,8.2
					c1.4,2.6,2.7,5,4,7.4c1.5,2.2,2.8,4.3,4.2,6.1c1.2,2,2.6,3.5,3.7,4.8s2.2,2.6,3,3.3c0.8,0.8,1.3,1.3,1.9,1.8
					c0.5,0.4,0.9,0.8,0.9,0.8L373.9,717.6z"/>
			</g>
		</g>
		<g>
			<g>
				<path class="st6" d="M510.6,500.3c0,0,79.5-26,108.2,13.2C601.8,479.5,570.1,454.2,510.6,500.3z"/>
			</g>
		</g>
		<g>
			<g>
				<path class="st6" d="M618.8,587c0,0,167.1-64.6,181.8-229.3c0,0-30.2,135.4-185.3,206.2C605,574.2,593.7,598.9,618.8,587z"/>
			</g>
		</g>
		<g>
			<g>
				<path class="st6" d="M613.1,627.6c0,0,10.2-68.5,0-114.1c-8.1,36.1-19,100.4-32.7,115.7C602.6,625.4,613.1,627.6,613.1,627.6z"
					/>
			</g>
		</g>
		<g>
			<g>
				<path class="st6" d="M559.4,629.2c0,0,18-36.6,15.4-84.4c8.5,19.6,15.3,70.6,11.6,81.2C582.7,636.5,559.4,629.2,559.4,629.2z"/>
			</g>
		</g>
		<g>
			<g>
				<path class="st6" d="M554.1,631.7c0,0,9.2-60.6,8-86.9c8.8-6.3,18.4-25.9,14.2-52.3c-4.3,10.9-13.6,31.1-16.8,34.8
					c-3.3,3.7-5.3,9.2-5.3,9.2s-10.1,36.5-10.4,41.2C543.5,582.5,527.9,637,554.1,631.7z"/>
			</g>
		</g>
		<g>
			<g>
				<path class="st6" d="M827.8,309c-15.9,0-26.8-5.6-42.2-24.6l0,0c-2.6-3.3-16.3-50.5,5.8-72c11.5-11.2,20.8-14,29.8-16.8
					c6.7-2.1,13.6-4.2,22.9-10.2c6.8-4.3,11.7-8.3,16.1-11.8c10.2-8.2,19.8-16.1,35.8-7.3c22.1,12,19.6,61.5,11.9,84.6
					c-8.2,24.8-30.1,52-60.4,56.3C840,308.2,833.5,309,827.8,309z M801.4,273.7c14.9,18,20.6,17.9,43.3,14.7
					c22.1-3.2,38.8-24.7,45-43.4c7.7-23.2,4.7-57.6-3-61.8c-4.6-2.5-4.8-2.6-14.7,5.4c-4.5,3.7-10.2,8.2-17.8,13.1
					c-11.5,7.3-20.3,10.1-27.5,12.3c-8.1,2.5-14,4.3-22.1,12.3C793.8,236.6,798.6,264.5,801.4,273.7z M800.4,272.4L800.4,272.4
					L800.4,272.4L800.4,272.4z"/>
			</g>
		</g>
		<g>
			<g>
				<path class="st6" d="M826.4,286.4c0,0-2.4-1.1-6.3-3.8c-3.7-2.8-9.2-7.1-13.6-14.8c-2.1-3.8-3.7-8.5-3.8-13.9s1.5-11,4.5-16
					c0.7-1.2,1.5-2.4,2.3-3.6c0.9-1.1,1.8-2.2,2.7-3.3c1-1.1,1.9-2,3-3.2l2.8-2.6c4.2-3.8,8.8-7.2,13.7-10.1
					c4.9-2.8,10.2-4.9,15-6.8c4.8-1.9,9.3-3.6,13.6-5.6c1.1-0.5,2.1-1,3.2-1.5c1.1-0.5,2.2-1.1,3.3-1.6c2.4-1.2,5-2.2,7.8-2.7
					c2.7-0.7,6-0.8,9.3,0.5s5.5,4.2,6.3,6.6c1.9,4.9,1.5,8.9,1.2,12.3c-0.3,3.4-1.1,6.2-1.8,8.5s-1.3,4-1.8,5.3
					c-0.4,1.2-0.8,1.8-0.8,1.8s-0.1-2.6-0.2-7.3c-0.1-2.3-0.3-5-0.8-8.1c-0.5-3-1.3-6.5-2.8-8.8c-0.9-1.1-1.6-1.5-2.5-1.6
					s-2.1,0.1-3.7,0.7c-1.6,0.5-3.3,1.5-5,2.6c-1,0.7-2,1.3-3.1,2s-2.2,1.4-3.3,2c-4.5,2.6-9.4,4.9-14.2,6.9s-9.4,3.9-13.7,6.2
					c-4.3,2.2-8.3,5-12,7.9l-3.1,2.4c-0.8,0.7-1.6,1.5-2.5,2.2c-0.8,0.8-1.5,1.5-2.3,2.4c-0.7,0.9-1.4,1.6-2,2.5
					c-2.5,3.4-4.2,7-4.6,10.7c-0.5,3.7,0,7.4,1.2,10.8c1.1,3.4,2.6,6.6,4.4,9.1c1.6,2.6,3.3,4.9,4.7,6.7
					C824.4,284.5,826.4,286.4,826.4,286.4z"/>
			</g>
		</g>
		<g>
			<g>
				<path class="st6" d="M797.8,617.7c-9.4-36.9-13.7-84.2,26.3-155.4c45.7-81.6,32.9-169.6,32.8-170.4l18.8-2.8
					c0.5,3.8,13.9,95.4-35,182.6c-36.7,65.3-33,108-24.6,141.3L797.8,617.7z"/>
			</g>
		</g>
		<g>
			<g>
				<path class="st6" d="M792.8,592.8c0,0-0.2-0.9-0.5-2.4c-0.3-1.8-0.7-3.8-1.1-6.7c-0.3-2.7-0.8-6.1-1-10
					c-0.3-3.8-0.4-8.1-0.5-12.8c0-4.7-0.1-9.7,0.2-15c0.1-5.4,0.7-10.8,1.2-16.6c0.5-5.7,1.4-11.6,2.2-17.6c1.1-5.9,2-11.9,3.3-17.9
					c1.4-5.9,2.5-11.9,4.2-17.7c1.6-5.8,3-11.5,4.7-16.8c1.8-5.4,3.4-10.6,5-15.5c1.9-4.8,3.5-9.5,5.1-13.7
					c1.5-4.3,3.1-8.1,4.6-11.5c1.4-3.4,2.7-6.3,3.7-8.8c2.1-4.8,3.3-7.7,3.3-7.7s-0.9,2.8-2.5,7.9c-0.8,2.5-1.8,5.6-2.8,9.1
					c-1.2,3.5-2.3,7.4-3.4,11.8c-1.1,4.4-2.4,9.1-3.7,14c-1.1,5-2.2,10.3-3.4,15.8s-2,11.3-3,17c-1.1,5.8-1.5,11.7-2.3,17.6
					s-1,11.8-1.4,17.6c-0.2,5.8-0.4,11.5-0.4,17.1c0.1,5.5,0.1,10.8,0.4,15.9c0.2,5,0.8,9.7,1.2,14.1c0.5,4.3,1.1,8.3,1.8,11.7
					c0.5,3.5,1.2,6.3,1.8,8.8c0.5,2.3,1.1,4.3,1.4,5.3c0.3,1.2,0.5,1.9,0.5,1.9L792.8,592.8z"/>
			</g>
		</g>
		<g>
			<g>
				<path class="st6" d="M584,297.5c-11.9,0-24.1-1.1-36.2-3.4l-5.5-1l-1-5.5c-3.7-21.1,1.1-64.2,46.1-76.5
					c4.8-1.3,9.8-2.3,15.1-2.7c21-2.2,37.5,2,49,12.5c11.4,10.4,17.3,26.8,17,47.3c0,2.7-0.2,5-0.2,6.5c0,0.4,0,0.8-0.1,1l-0.2,6.9
					l-6.9,1c-0.5,0.1-1.2,0.2-2,0.3c-2.2,0.5-5.3,1.4-8.9,2.5c-13,4-34.9,10.7-63.3,11.2C586.1,297.5,585.1,297.5,584,297.5z
					 M556.7,279.5c10.2,1.5,20.3,2.3,30.3,2.1c26.1-0.3,45.8-6.5,58.9-10.4c2.5-0.8,4.8-1.5,6.9-2.1c0-0.3,0-0.7,0-1.1l0,0
					c0.1-11-1.8-26.1-11.8-35.3c-8-7.2-20.2-10.1-36.6-8.4c-4.4,0.4-8.5,1.2-12.5,2.3C557.9,235.8,555.9,266.8,556.7,279.5z"/>
			</g>
		</g>
		<g>
			<g>
				<path class="st6" d="M557.2,287.8c0,0-0.1,0.4-0.1,0.2s-0.1,0.3-0.2,0.8c-0.1,0.4-0.1,1.1-0.1,1.8c0.1,0.8,0.1,1.6,0.4,2.5
					c0.2,1,0.8,2,1.3,3.2c0.3,0.5,0.8,1.1,1.1,1.6c0.4,0.5,1,1.1,1.5,1.6c1,1.2,2.4,2.2,3.7,3.3c1.4,1.1,3.1,2,4.6,3
					c1.8,0.9,3.4,1.6,5.1,2.5c1.8,0.8,3.6,1.3,5.3,2c1.8,0.7,3.5,1.1,5.1,1.6c1.6,0.4,3.2,0.9,4.7,1.3c5.9,1.2,9.8,2.1,9.8,2.1
					s-4,0.2-10.2,0.4c-1.5,0-3.2-0.1-4.9-0.1c-1.8-0.1-3.6,0-5.6-0.3c-2-0.2-3.9-0.4-6-0.7c-2.1-0.4-4.2-0.9-6.2-1.3
					c-2.1-0.7-4.2-1.3-6.2-2.1c-2-1-4.2-1.8-5.9-3.1c-1-0.7-1.9-1.2-2.7-1.9c-0.9-0.8-1.6-1.5-2.5-2.2c-1.5-1.6-3-3.2-3.9-5
					c-1.1-1.8-1.9-3.5-2.4-5.1s-0.9-3.2-1-4.5c-0.1-0.7-0.1-1.3-0.1-1.8c0-0.4,0-1.1,0-1.5c0.1-0.8,0.1-1.2,0.1-1.2L557.2,287.8z"/>
			</g>
		</g>
		<g>
			<g>
				<path class="st6" d="M667.9,273.3c0,0,0,0.3,0.1,1c0.1,0.3,0.1,0.9,0.2,1.4c0,0.4,0.1,1,0.1,1.5c0.1,1.2,0.1,2.6,0,4.2
					c-0.1,0.8-0.1,1.6-0.2,2.5c-0.1,0.9-0.3,1.9-0.5,2.7c-0.1,1-0.4,2-0.8,3c-0.3,1-0.7,2.1-1.1,3.1s-1,2.1-1.5,3.1
					c-0.7,1-1.3,2-2,3s-1.5,1.9-2.4,2.7c-0.9,0.9-1.6,1.9-2.6,2.5c-1,0.8-2,1.4-3,2.2c-1,0.8-2.1,1.2-3.1,1.8
					c-1.1,0.5-2.1,1.1-3.2,1.5c-1.1,0.3-2.2,0.8-3.2,1.1c-1.1,0.3-2.1,0.8-3.2,1s-2.1,0.4-3.1,0.7c-2.1,0.4-3.9,0.8-5.8,0.9
					c-1.9,0.1-3.6,0.2-5.3,0.4c-1.6,0.1-3.1,0-4.4,0s-2.4-0.1-3.4-0.1c-1.9,0-3-0.1-3-0.1s1-0.2,2.8-0.7c0.9-0.2,2-0.4,3.3-0.7
					c1.2-0.3,2.6-0.4,4.2-1c1.5-0.4,3.1-1,4.8-1.5c1.8-0.4,3.4-1.3,5.1-2.1c0.9-0.4,1.8-0.8,2.6-1.2c0.9-0.4,1.6-1,2.5-1.5
					c0.8-0.5,1.6-1,2.4-1.5c0.8-0.5,1.4-1.2,2.2-1.9c0.7-0.7,1.4-1.1,2.1-1.9l1.6-2.1c0.7-0.7,1-1.4,1.3-2.1
					c0.3-0.8,0.9-1.3,1.1-2.1c0.2-0.8,0.5-1.4,0.8-2.1c0.1-0.8,0.3-1.4,0.4-2.1c0.2-0.7,0.1-1.3,0.2-2c0-0.7,0.1-1.2,0-1.9
					c0-0.5-0.1-1.2-0.1-1.8c-0.1-0.5-0.2-1.1-0.2-1.5c-0.2-1-0.4-1.8-0.7-2.4c-0.1-0.3-0.2-0.5-0.3-0.9c-0.1-0.2-0.1-0.3-0.2-0.4
					c-0.1-0.3-0.2-0.5-0.2-0.5L667.9,273.3z"/>
			</g>
		</g>
		<g>
			<g>
				<path class="st6" d="M654.9,258.1c0,4-0.5,8-1.6,11.7c-0.8,2.5-1.8,5-3,7.3c-10.2,2.3-32.4,11.9-64.5,12.4
					c-8.8-7.7-14.3-18.8-14.3-31.4c0-13.7,6.6-25.8,16.7-33.4c7-5.3,15.6-8.3,25.1-8.3C636.2,216.5,654.9,235.2,654.9,258.1z"/>
			</g>
		</g>
		<g>
			<g>
				<polygon class="st15" points="780.7,999.9 86.7,977 197.5,644.5 293.3,638.8 294.2,654.7 209.2,659.7 108.6,961.8 766.6,983.5 
					809.1,623.8 535.8,640.2 534.8,624.4 827.2,606.8 				"/>
			</g>
		</g>
		<g>
			<g>
				<polygon class="st15" points="432.4,862.6 198.2,658.2 208.6,646.1 434,842.9 813.9,608.5 822.4,622.1 				"/>
			</g>
		</g>
		<g>
			<g>
				<path class="st6" d="M427.8,729.4c-17.3,0-34-3.5-48.1-8.9c-22.3,11-41.7,11.5-57.4,1.3c-49.8-32.2-41.2-163.2-40.8-168.8
					l15.9,1.1c-2.4,35.3-1.2,131.8,33.6,154.3c11.5,7.4,26,6.2,44.6-3.7l3.3-1.8l3.5,1.4c11.9,4.9,73.6,26.9,117-22.3
					c31.5-35.8,34.6-78.5,36.5-106.8c0.4-5.8,0.8-10.7,1.3-15.1c0.7-5.5,1.1-10,1.4-13.6c1.3-14,2-21.7,15.9-25.8
					c4-1.2,7.8-17.3,6-30.7l15.8-2.1c1.4,10.7,1.2,42.6-17.3,48c-2.5,0.8-3.1,1.2-3.1,1.2c-0.5,1-1,5.9-1.4,10.7
					c-0.3,3.7-0.8,8.4-1.4,14.1c-0.4,3.9-0.9,8.8-1.2,14.3c-2,28.6-5.4,76.4-40.5,116.2C487.5,719.7,456.8,729.4,427.8,729.4z"/>
			</g>
		</g>
		<g>
			<g>
				<ellipse class="st4" cx="581.6" cy="264.7" rx="17.9" ry="7.3"/>
			</g>
		</g>
	</g>
</g>
</svg>
